<svg xmlns="http://www.w3.org/2000/svg" width="35" height="35" viewBox="0 0 52 52" fill="none"><circle cx="26" cy="26" r="26" fill="#8195D2"></circle><path d="M36.7258 16.6586L21.5909 15.7414C21.1588 15.7152 20.7421 15.8599 20.4165 16.1483C20.0906 16.437 19.8969 16.8332 19.8706 17.2651L19.7875 18.6394C19.7612 19.0709 19.9057 19.4881 20.1942 19.8139C20.4826 20.1395 20.8885 20.3436 21.32 20.3696L30.1585 20.9149L15.2829 34.0907C14.6123 34.6848 14.5474 35.6792 15.1416 36.3501L16.0543 37.3805C16.6485 38.0514 17.6904 38.16 18.3611 37.5659L33.2898 24.3431L32.7342 33.2559C32.7082 33.6877 32.8453 34.0967 33.1338 34.4224C33.4221 34.7478 33.8153 34.9377 34.247 34.9638L35.6192 35.0449C36.0512 35.0711 36.467 34.9257 36.7929 34.637C37.1185 34.3486 37.3118 33.9516 37.338 33.5196L38.2551 18.3849C38.2812 17.9516 38.1357 17.533 37.846 17.2076C37.5569 16.8798 37.1588 16.6845 36.7258 16.6586Z" fill="#ECEEFF"></path></svg>